<svg width="40" height="40" viewBox="0 0 40 40" fill="none" xmlns="http://www.w3.org/2000/svg">
<g id="boy">
<g id="Group">
<path id="Vector" d="M33.5024 37.6743L32.6295 30.6905C32.4977 29.6364 31.7723 28.7516 30.7646 28.4156L27.3985 27.2936C26.9362 27.1394 26.4292 27.2376 26.0727 27.5413L25.0811 27.2108C24.518 27.023 24.138 26.496 24.138 25.9023V23.678L27.1088 22.4401C28.6508 21.7978 29.6552 20.2912 29.6552 18.6207V17.931C30.7979 17.931 31.7241 17.0047 31.7241 15.862C31.7241 15.3466 31.5353 14.8756 31.2235 14.5133C31.8089 12.3825 33.4543 5.64214 31.7241 2.75862L32.4138 0C32.4138 0 25.1724 0.172413 21.3793 1.37931L22.7586 0C22.7586 0 13.0604 0 11.0351 3.44767L11.0345 3.44827C11.0345 3.44827 7.58627 3.41956 7.58627 7.58619C7.58627 9.11119 8.43687 12.9191 8.80204 14.484C8.47506 14.8499 8.27592 15.3326 8.27592 15.862C8.27592 17.0047 9.20221 17.931 10.3449 17.931V18.6207C10.3449 20.2911 11.3493 21.7977 12.8913 22.4403L15.8621 23.6781V25.9024C15.8621 26.4961 15.4822 27.0231 14.919 27.2109L13.9275 27.5414C13.571 27.2377 13.0639 27.1395 12.6017 27.2936L9.23557 28.4157C8.22773 28.7517 7.50239 29.6365 7.37066 30.6906L6.49773 37.6744C6.34334 38.9092 7.30618 39.9999 8.55066 39.9999H8.57006H31.43H31.4494C32.6939 39.9999 33.6568 38.9092 33.5024 37.6743Z" fill="#FFD7A3"/>
<g id="Group_2">
<path id="Vector_2" d="M24.1379 23.6782L15.862 23.6783V25.9025C15.862 26.399 15.5874 26.8362 15.1709 27.08C20.9549 28.0924 24.1379 23.6782 24.1379 23.6782Z" fill="#FDC88E"/>
</g>
<g id="Group_3">
<path id="Vector_3" d="M8.96524 15.1724C8.96524 15.1724 7.58594 9.52808 7.58594 7.58619C7.58594 3.41956 11.0342 3.44827 11.0342 3.44827L11.0348 3.44766C13.0601 0 22.7583 0 22.7583 0L21.379 1.37931C25.1721 0.172413 32.4135 0 32.4135 0L31.7238 2.75861C33.7928 6.20688 31.0342 15.1724 31.0342 15.1724H8.96524Z" fill="#734A3E"/>
</g>
<g id="Group_4">
<path id="Vector_4" d="M22.7583 0C22.7583 0 13.0601 0 11.0348 3.44766L11.0342 3.44827C11.0342 3.44827 7.58594 3.41956 7.58594 7.58619C7.58594 9.52808 8.96525 15.1724 8.96525 15.1724C8.96525 15.1724 23.3044 8.76438 32.4135 0C32.4135 0 25.1721 0.172413 21.379 1.37931L22.7583 0Z" fill="#623F33"/>
</g>
<path id="Vector_5" d="M29.6556 13.7929V12.4136C29.6556 10.5092 28.1118 8.96533 26.2074 8.96533H13.7936C11.8892 8.96533 10.3453 10.5092 10.3453 12.4136V13.7929C9.20266 13.7929 8.27637 14.7192 8.27637 15.8619C8.27637 17.0045 9.20266 17.9308 10.3453 17.9308V18.6205C10.3453 20.2909 11.3497 21.7975 12.8917 22.4401L17.3478 24.2969C18.1883 24.6471 19.0899 24.8274 20.0004 24.8274C20.9109 24.8274 21.8124 24.647 22.6529 24.2969L27.1093 22.44C28.6512 21.7976 29.6556 20.291 29.6556 18.6205V17.9308C30.7983 17.9308 31.7246 17.0045 31.7246 15.8619C31.7246 14.7192 30.7983 13.7929 29.6556 13.7929Z" fill="#FFE1B2"/>
<g id="Group_5">
<path id="Vector_6" d="M15.1721 16.5519C14.7928 16.5519 14.4824 16.2415 14.4824 15.8622V15.1726C14.4824 14.7933 14.7928 14.4829 15.1721 14.4829C15.5514 14.4829 15.8617 14.7933 15.8617 15.1726V15.8622C15.8617 16.2415 15.5514 16.5519 15.1721 16.5519Z" fill="#623F33"/>
</g>
<g id="Group_6">
<path id="Vector_7" d="M24.8273 16.5519C24.448 16.5519 24.1377 16.2415 24.1377 15.8622V15.1726C24.1377 14.7933 24.448 14.4829 24.8273 14.4829C25.2067 14.4829 25.517 14.7933 25.517 15.1726V15.8622C25.517 16.2415 25.2067 16.5519 24.8273 16.5519Z" fill="#623F33"/>
</g>
<g id="Group_7">
<g id="Group_8">
<path id="Vector_8" d="M20.0001 21.398C18.774 21.398 17.6271 21.0963 16.8536 20.57C16.5388 20.3559 16.4569 19.9268 16.6714 19.612C16.8852 19.2975 17.3146 19.2156 17.6294 19.4298C18.1716 19.7986 19.0579 20.0188 20.0001 20.0188C20.9424 20.0188 21.8287 19.7986 22.3708 19.4298C22.6863 19.215 23.1147 19.2972 23.3288 19.612C23.5433 19.9268 23.4615 20.3559 23.1467 20.57C22.3732 21.0963 21.2262 21.398 20.0001 21.398Z" fill="#E4B07B"/>
</g>
</g>
<g id="Group_9">
<path id="Vector_9" d="M33.5024 37.6742L32.6295 30.6904C32.4978 29.6363 31.7723 28.7514 30.7646 28.4155L27.3985 27.2934C26.8123 27.098 26.1528 27.3067 25.8217 27.8284C24.5991 29.7546 22.4504 31.0342 20 31.0342C17.5497 31.0342 15.401 29.7545 14.1785 27.8284C13.8474 27.3067 13.1879 27.098 12.6017 27.2934L9.23557 28.4155C8.22773 28.7514 7.50239 29.6363 7.37066 30.6904L6.49773 37.6742C6.34334 38.909 7.30627 39.9998 8.55075 39.9998H31.4495C32.6939 39.9998 33.6568 38.909 33.5024 37.6742Z" fill="#00BEA4"/>
</g>
<g id="Group_10">
<path id="Vector_10" d="M7.94558 29.3247C7.63937 29.7124 7.43437 30.1807 7.37066 30.6905L6.49773 37.6743C6.34334 38.9092 7.30627 39.9999 8.55075 39.9999H12.4138V35.5113C12.4138 34.8478 12.1747 34.2066 11.7403 33.705L7.94558 29.3247Z" fill="#00AB9A"/>
</g>
<g id="Group_11">
<path id="Vector_11" d="M32.0542 29.3247C32.3604 29.7124 32.5654 30.1807 32.6291 30.6905L33.502 37.6743C33.6564 38.9092 32.6935 39.9999 31.449 39.9999H27.5859V35.5113C27.5859 34.8478 27.8251 34.2066 28.2595 33.705L32.0542 29.3247Z" fill="#00AB9A"/>
</g>
<path id="Vector_12" d="M13.9657 21.0104C13.4069 20.4113 13.104 19.6207 13.104 18.8013V10.9858C15.2991 10.8213 22.2199 10.2227 26.2075 8.96533H13.7936C13.5562 8.96533 13.3263 8.993 13.1039 9.04128V9.03481C11.5301 9.35438 10.3453 10.7454 10.3453 12.4136V13.7929C9.20266 13.7929 8.27637 14.7192 8.27637 15.8619C8.27637 17.0045 9.20266 17.9308 10.3453 17.9308V18.6205C10.3453 20.291 11.3497 21.7976 12.8917 22.4401L17.3477 24.2969C17.5658 24.3877 17.7884 24.466 18.0138 24.5338C16.0445 23.0931 14.7337 21.8338 13.9657 21.0104Z" fill="#FFD7A3"/>
</g>
</g>
</svg>
