<svg width="40" height="40" viewBox="0 0 40 40" fill="none" xmlns="http://www.w3.org/2000/svg">
<g id="boy-22" clip-path="url(#clip0_1623_1396)">
<g id="Group">
<path id="Vector" d="M33.7809 36.4549L33.7183 35.8915C33.6935 35.6686 33.4928 35.5079 33.2699 35.5327L33.2348 35.5366L32.6291 30.6905C32.4972 29.6364 31.7719 28.7516 30.7641 28.4156L27.3979 27.2936C26.9357 27.1394 26.4286 27.2375 26.0722 27.5413L25.0806 27.2108C24.5173 27.023 24.1375 26.496 24.1375 25.9023V23.678L27.1083 22.4401C28.6504 21.7978 29.6547 20.2912 29.6547 18.6207V17.931C30.7974 17.931 31.7237 17.0047 31.7237 15.862C31.7237 15.517 31.6388 15.1919 31.4893 14.9058C31.6397 14.5653 31.7237 14.1891 31.7237 13.7931C31.7237 13.5138 31.6698 13.2496 31.5927 12.9956C32.0988 12.4955 32.4134 11.8021 32.4134 11.0345C32.4134 10.7551 32.3595 10.491 32.2823 10.237C32.7885 9.73688 33.103 9.04352 33.103 8.27584C33.103 6.94904 32.1657 5.84257 30.9175 5.57852C30.9859 5.33826 31.0341 5.08973 31.0341 4.82758C31.0341 3.30404 29.799 2.06896 28.2754 2.06896C27.7033 2.06896 27.1719 2.24327 26.7312 2.54155C26.3548 1.46595 25.3417 0.689654 24.1375 0.689654C23.4573 0.689654 22.8426 0.945257 22.3616 1.35345C21.8805 0.546292 21.0076 0 19.9997 0C18.9918 0 18.119 0.546292 17.6377 1.35345C17.1567 0.945257 16.542 0.689654 15.8618 0.689654C14.6576 0.689654 13.6445 1.46595 13.2681 2.54155C12.8273 2.24327 12.2959 2.06896 11.7238 2.06896C10.2003 2.06896 8.96523 3.30404 8.96523 4.82758C8.96523 5.08973 9.0135 5.33826 9.08178 5.57852C7.8335 5.84257 6.89618 6.94904 6.89618 8.27584C6.89618 9.04352 7.21075 9.73688 7.71687 10.237C7.63971 10.491 7.58583 10.7551 7.58583 11.0345C7.58583 11.8021 7.9004 12.4955 8.40652 12.9956C8.32936 13.2496 8.27549 13.5138 8.27549 13.7931C8.27549 14.1891 8.35954 14.5653 8.50988 14.9058C8.36049 15.1919 8.27549 15.517 8.27549 15.862C8.27549 17.0047 9.20178 17.931 10.3444 17.931V18.6207C10.3444 20.2911 11.3488 21.7977 12.8908 22.4403L15.8617 23.6781V25.9024C15.8617 26.4961 15.4818 27.0231 14.9186 27.2109L13.927 27.5414C13.5706 27.2376 13.0635 27.1395 12.6013 27.2936L9.23514 28.4157C8.2273 28.7517 7.50195 29.6365 7.37014 30.6906L6.76437 35.5367L6.72928 35.5328C6.50644 35.508 6.30566 35.6686 6.28092 35.8916L6.21834 36.455C6.19359 36.6779 6.3542 36.8786 6.57704 36.9034L7.58583 37.0154V38.6206C7.58583 39.3823 8.20342 39.9999 8.96514 39.9999H12.4134H27.5858H31.0341C31.7959 39.9999 32.4134 39.3823 32.4134 38.6206V37.0154L33.4222 36.9033C33.645 36.8785 33.8057 36.6778 33.7809 36.4549Z" fill="#C38762"/>
<path id="Vector_2" d="M32.2827 10.237C32.7888 9.73687 33.1033 9.04351 33.1033 8.27584C33.1033 6.94904 32.166 5.84257 30.9178 5.57852C30.9862 5.33826 31.0344 5.08973 31.0344 4.82758C31.0344 3.30404 29.7993 2.06896 28.2757 2.06896C27.7036 2.06896 27.1722 2.24327 26.7315 2.54155C26.3551 1.46595 25.342 0.689654 24.1378 0.689654C23.4576 0.689654 22.8429 0.945256 22.3619 1.35345C21.8808 0.546292 21.0079 0 20 0C18.9921 0 18.1193 0.546292 17.638 1.35345C17.157 0.945256 16.5423 0.689654 15.8621 0.689654C14.6579 0.689654 13.6448 1.46595 13.2684 2.54155C12.8276 2.24327 12.2962 2.06896 11.7241 2.06896C10.2006 2.06896 8.96553 3.30404 8.96553 4.82758C8.96553 5.08973 9.01381 5.33826 9.08208 5.57852C7.83381 5.84257 6.89648 6.94904 6.89648 8.27584C6.89648 9.04351 7.21105 9.73687 7.71717 10.237C7.64002 10.491 7.58614 10.7551 7.58614 11.0345C7.58614 11.8021 7.90071 12.4955 8.40683 12.9956C8.32967 13.2496 8.27579 13.5138 8.27579 13.7931C8.27579 15.3166 9.51087 16.5517 11.0344 16.5517C11.0347 16.5517 11.0349 16.5517 11.0353 16.5517H28.9646C28.9649 16.5517 28.9651 16.5517 28.9655 16.5517C30.489 16.5517 31.7241 15.3166 31.7241 13.7931C31.7241 13.5138 31.6702 13.2496 31.5931 12.9956C32.0992 12.4955 32.4138 11.8021 32.4138 11.0345C32.4137 10.7551 32.3599 10.491 32.2827 10.237Z" fill="#623F33"/>
<g id="Group_2">
<path id="Vector_3" d="M27.5854 40.0004V36.5521H33.3612L32.6286 30.691C32.4967 29.6368 31.7714 28.752 30.7636 28.4161L27.3974 27.294C26.8112 27.0986 26.1518 27.3073 25.8206 27.829C24.5982 29.7552 22.4495 31.0348 19.9993 31.0348C17.549 31.0348 15.4002 29.7551 14.1777 27.8289C13.8466 27.3072 13.1871 27.0985 12.6009 27.2939L9.23481 28.416C8.22697 28.7519 7.50162 29.6367 7.36981 30.6909L6.71387 35.9385L12.4131 36.552V40.0003H27.5855V40.0004H27.5854Z" fill="#FFD739"/>
</g>
<g id="Group_3">
<path id="Vector_4" d="M24.1379 23.678L15.862 21.8389V25.9022C15.862 26.3987 15.5874 26.836 15.1709 27.0798C20.9549 28.0922 24.1379 23.678 24.1379 23.678Z" fill="#A46D4D"/>
</g>
<path id="Vector_5" d="M29.6547 13.7933V11.7243C29.6547 9.81996 28.1108 7.58643 26.2064 7.58643H13.7926C11.8881 7.58643 10.3444 9.81996 10.3444 11.7243V13.7933C9.20168 13.7933 8.27539 14.7197 8.27539 15.8623C8.27539 17.0049 9.20168 17.9312 10.3444 17.9312V18.6209C10.3444 20.2913 11.3487 21.7979 12.8907 22.4405L17.3468 24.2973C18.1874 24.6475 19.089 24.8278 19.9995 24.8278C20.91 24.8278 21.8115 24.6474 22.652 24.2973L27.1084 22.4404C28.6503 21.798 29.6547 20.2914 29.6547 18.6209V17.9312C30.7973 17.9312 31.7236 17.0049 31.7236 15.8623C31.7236 14.7196 30.7973 13.7933 29.6547 13.7933Z" fill="#D29771"/>
<g id="Group_4">
<path id="Vector_6" d="M15.1721 16.5519C14.7928 16.5519 14.4824 16.2415 14.4824 15.8622V15.1726C14.4824 14.7933 14.7928 14.4829 15.1721 14.4829C15.5514 14.4829 15.8617 14.7933 15.8617 15.1726V15.8622C15.8617 16.2415 15.5513 16.5519 15.1721 16.5519Z" fill="#623F33"/>
</g>
<g id="Group_5">
<path id="Vector_7" d="M24.8273 16.5519C24.448 16.5519 24.1377 16.2415 24.1377 15.8622V15.1726C24.1377 14.7933 24.448 14.4829 24.8273 14.4829C25.2067 14.4829 25.517 14.7933 25.517 15.1726V15.8622C25.517 16.2415 25.2067 16.5519 24.8273 16.5519Z" fill="#623F33"/>
</g>
<g id="Group_6">
<g id="Group_7">
<path id="Vector_8" d="M20.0001 21.398C18.774 21.398 17.6271 21.0963 16.8535 20.57C16.5387 20.3559 16.4569 19.9268 16.6714 19.612C16.8852 19.2975 17.3146 19.2156 17.6294 19.4298C18.1716 19.7986 19.0578 20.0188 20.0001 20.0188C20.9423 20.0188 21.8286 19.7986 22.3708 19.4298C22.6863 19.215 23.1146 19.2972 23.3288 19.612C23.5433 19.9268 23.4615 20.3559 23.1466 20.57C22.3732 21.0963 21.2262 21.398 20.0001 21.398Z" fill="#A46D4D"/>
</g>
</g>
<g id="Group_8">
<path id="Vector_9" d="M12.4139 37.0723V35.5114C12.4139 34.8479 12.1748 34.2067 11.7404 33.7051L7.94565 29.3247C7.63944 29.7124 7.43444 30.1807 7.37073 30.6905L6.65039 36.4531C7.7472 36.519 10.6648 36.8608 12.4139 37.0723Z" fill="#FFC33D"/>
</g>
<g id="Group_9">
<path id="Vector_10" d="M12.4135 36.1643L6.72937 35.5328C6.50644 35.508 6.30575 35.6687 6.28092 35.8915L6.21834 36.4549C6.19359 36.6778 6.3542 36.8786 6.57704 36.9033L12.4135 37.5518V36.1643Z" fill="#FFB440"/>
</g>
<g id="Group_10">
<path id="Vector_11" d="M27.5859 37.0723V35.5114C27.5859 34.8479 27.8251 34.2067 28.2595 33.7051L32.0542 29.3247C32.3604 29.7124 32.5654 30.1807 32.6291 30.6905L33.3495 36.4531C32.2527 36.519 29.335 36.8608 27.5859 37.0723Z" fill="#FFC33D"/>
</g>
<g id="Group_11">
<path id="Vector_12" d="M27.5859 36.1643L33.2701 35.5328C33.493 35.508 33.6937 35.6687 33.7185 35.8915L33.7811 36.4549C33.8058 36.6778 33.6452 36.8786 33.4224 36.9033L27.5859 37.5518V36.1643Z" fill="#FFB440"/>
</g>
<path id="Vector_13" d="M10.3444 7.67236V13.793C9.20168 13.793 8.27539 14.7193 8.27539 15.862C8.27539 17.0047 9.20168 17.931 10.3444 17.931V18.6206C10.3444 20.2911 11.3487 21.7978 12.8907 22.4403L17.3467 24.297C17.5649 24.3878 17.7874 24.4661 18.0129 24.534C16.0436 23.0934 14.7327 21.834 13.9646 21.0105C13.4058 20.4114 13.103 19.6208 13.103 18.8015V11.0149C13.837 10.933 14.4923 10.5939 14.9808 10.0913C15.357 10.2534 15.7708 10.3448 16.2064 10.3448C17.1544 10.3448 17.9925 9.91063 18.5617 9.24081C18.9815 9.49883 19.4707 9.65512 19.9995 9.65512C20.7077 9.65512 21.3468 9.38046 21.8354 8.94184C22.3708 9.38081 23.0463 9.65512 23.7926 9.65512C25.1102 9.65512 26.2278 8.83141 26.6758 7.67236H10.3444Z" fill="#C38762"/>
<path id="Vector_14" d="M29.6547 8.27602C29.6098 8.27602 29.568 8.28636 29.5239 8.28921C29.6039 8.06886 29.6547 7.8343 29.6547 7.58637C29.6547 6.4437 28.7284 5.5174 27.5857 5.5174C27.3347 5.5174 27.0972 5.56887 26.8747 5.65068C26.7641 4.03732 25.4341 2.75879 23.7926 2.75879C22.3794 2.75879 21.2003 3.70922 20.8253 5.00146C20.572 4.89085 20.2935 4.82775 19.9995 4.82775C19.2255 4.82775 18.5588 5.25784 18.204 5.88723C17.7698 5.24801 17.0374 4.82775 16.2065 4.82775C15.2189 4.82775 14.3726 5.4224 13.9988 6.27171C13.6193 5.81464 13.0538 5.5174 12.4134 5.5174C11.6447 5.5174 10.9744 5.93689 10.6177 6.55913C10.5703 6.55438 10.5223 6.55188 10.4737 6.55188C9.68806 6.55188 9.05125 7.18869 9.05125 7.9743C9.05125 8.20602 9.1078 8.42412 9.20616 8.61748C8.64556 8.98757 8.27539 9.62291 8.27539 10.345C8.27539 11.4877 9.20168 12.4139 10.3444 12.4139C11.487 12.4139 12.4133 11.4877 12.4133 10.345C12.4133 10.097 12.3625 9.86248 12.2825 9.64214C12.3267 9.64498 12.3686 9.65533 12.4133 9.65533C13.1874 9.65533 13.8541 9.22524 14.2088 8.59585C14.6431 9.23507 15.3755 9.65533 16.2064 9.65533C17.194 9.65533 18.0403 9.06067 18.4141 8.21136C18.7936 8.66843 19.3589 8.96567 19.9995 8.96567C20.686 8.96567 21.2898 8.62757 21.6661 8.11283C22.2222 8.63817 22.9673 8.96567 23.7926 8.96567C24.4967 8.96567 25.1385 8.72223 25.6593 8.32714C25.9579 9.10266 26.7049 9.65533 27.5857 9.65533C27.6305 9.65533 27.6723 9.64498 27.7165 9.64214C27.6365 9.86248 27.5857 10.097 27.5857 10.345C27.5857 11.4877 28.512 12.4139 29.6547 12.4139C30.7973 12.4139 31.7236 11.4877 31.7236 10.345C31.7236 9.20231 30.7973 8.27602 29.6547 8.27602Z" fill="#623F33"/>
</g>
</g>
<defs>
<clipPath id="clip0_1623_1396">
<rect width="40" height="40" fill="white"/>
</clipPath>
</defs>
</svg>
