<svg width="40" height="40" viewBox="0 0 40 40" fill="none" xmlns="http://www.w3.org/2000/svg">
<g id="girl-16">
<g id="Group">
<g id="Group_2">
<path id="Vector" d="M36.5522 13.7931C36.5522 13.7931 33.7073 14.1379 32.4142 9.65517C30.6301 3.47 26.6659 0 20.0004 0C13.335 0 9.37078 3.47 7.58664 9.65517C6.29354 14.1379 3.44871 13.7931 3.44871 13.7931C3.44871 13.7931 1.89698 17.2414 5.51767 19.3103H4.13836C4.13836 19.3103 4.97681 23.4977 9.19897 24.0669C9.73561 25.2794 11.4143 26.8966 16.5522 26.8966H20.0004H23.4487C28.5866 26.8966 30.2653 25.2793 30.8019 24.0669C35.0241 23.4977 35.8625 19.3103 35.8625 19.3103H34.4832C38.1039 17.2414 36.5522 13.7931 36.5522 13.7931Z" fill="#9D6E48"/>
</g>
<g id="Group_3">
<path id="Vector_2" d="M26.897 13.7931C18.3625 9.48276 18.8797 1.89655 20.0004 0C13.3351 0 9.37078 3.47 7.58664 9.65517C6.29354 14.1379 3.44871 13.7931 3.44871 13.7931C3.44871 13.7931 1.89698 17.2414 5.51767 19.3103H4.13836C4.13836 19.3103 4.97681 23.4977 9.19897 24.0669C9.73561 25.2794 11.4143 26.8966 16.5522 26.8966L26.897 13.7931Z" fill="#8D5F3D"/>
</g>
<path id="Vector_3" d="M32.7912 37.6575L31.9991 31.7171C31.83 30.4489 30.9725 29.3785 29.7718 28.9367L25.0811 27.2108C24.5179 27.0231 24.138 26.496 24.138 25.9023V23.678L27.1087 22.4402C28.6508 21.7977 29.6552 20.291 29.6552 18.6205V17.9308C30.7979 17.9308 31.7242 17.0046 31.7242 15.8619C31.7242 14.7192 30.7979 13.7929 29.6552 13.7929V12.4136C29.6552 10.5091 28.1113 8.96533 26.2069 8.96533H13.7931C11.8887 8.96533 10.3449 10.5092 10.3449 12.4136V13.7929C9.20219 13.7929 8.2759 14.7192 8.2759 15.8619C8.2759 17.0046 9.20219 17.9308 10.3449 17.9308V18.6205C10.3449 20.291 11.3493 21.7977 12.8912 22.4402L15.8621 23.678V25.9022C15.8621 26.4959 15.4822 27.023 14.919 27.2108L10.2283 28.9366C9.02754 29.3784 8.17012 30.4488 8.00099 31.7171L7.20892 37.6574C7.04357 38.8977 8.0084 39.9998 9.25969 39.9998H20H30.7404C31.9917 39.9998 32.9566 38.8977 32.7912 37.6575Z" fill="#F6B47B"/>
<path id="Vector_4" d="M15.8626 23.7066V25.9021C15.8626 26.3929 15.6025 26.8377 15.1943 27.0833C20.6903 28.0328 23.8316 24.0832 24.1171 23.7065H15.8626V23.7066Z" fill="#E2A071"/>
<path id="Vector_5" d="M29.6557 13.7929V12.4136C29.6557 10.5091 28.1118 8.96533 26.2074 8.96533H13.7936C11.8891 8.96533 10.3453 10.5092 10.3453 12.4136V13.7929C9.20266 13.7929 8.27637 14.7192 8.27637 15.8619C8.27637 17.0046 9.20266 17.9308 10.3453 17.9308V18.6205C10.3453 20.291 11.3497 21.7977 12.8917 22.4402L17.3478 24.2969C18.1884 24.6471 19.0899 24.8274 20.0004 24.8274C20.9109 24.8274 21.8124 24.6471 22.6529 24.2969L27.1093 22.4401C28.6513 21.7977 29.6557 20.291 29.6557 18.6205V17.9308C30.7984 17.9308 31.7246 17.0046 31.7246 15.8619C31.7246 14.7192 30.7984 13.7929 29.6557 13.7929Z" fill="#FDC88E"/>
<g id="Group_4">
<path id="Vector_6" d="M15.1731 16.5519C14.7937 16.5519 14.4834 16.2415 14.4834 15.8622V15.1726C14.4834 14.7933 14.7937 14.4829 15.1731 14.4829C15.5524 14.4829 15.8627 14.7933 15.8627 15.1726V15.8622C15.8627 16.2415 15.5524 16.5519 15.1731 16.5519Z" fill="#623F33"/>
</g>
<g id="Group_5">
<g id="Group_6">
<path id="Vector_7" d="M20.0001 21.398C18.774 21.398 17.6271 21.0963 16.8536 20.57C16.5388 20.3559 16.4569 19.9268 16.6714 19.612C16.8852 19.2975 17.3146 19.2156 17.6294 19.4298C18.1716 19.7985 19.0579 20.0188 20.0001 20.0188C20.9424 20.0188 21.8287 19.7985 22.3708 19.4298C22.6863 19.215 23.1147 19.2972 23.3288 19.612C23.5433 19.9268 23.4615 20.3559 23.1467 20.57C22.3732 21.0963 21.2263 21.398 20.0001 21.398Z" fill="#E2A071"/>
</g>
</g>
<g id="Group_7">
<path id="Vector_8" d="M27.9178 28.1602L25.4361 32.1307C25.058 32.7356 24.395 33.1031 23.6816 33.1031H16.3199C15.6065 33.1031 14.9435 32.7356 14.5654 32.1307L12.0839 28.1602C11.8846 27.8413 11.4666 27.7409 11.1442 27.9343L8.87888 29.2935C8.5481 29.492 8.44439 29.9233 8.64888 30.2504L11.7249 35.1721H28.2766L31.3527 30.2504C31.5572 29.9232 31.4534 29.492 31.1227 29.2935L28.8573 27.9342C28.535 27.7409 28.117 27.8414 27.9178 28.1602Z" fill="#F23F44"/>
</g>
<g id="Group_8">
<path id="Vector_9" d="M28.2763 35.1724H11.7246V39.9999H28.2763V35.1724Z" fill="#FF4F4F"/>
</g>
<path id="Vector_10" d="M13.9657 21.0104C13.4069 20.4113 13.104 19.6207 13.104 18.8014V11.4857C15.5 13.1648 18.8144 14.4779 25.0006 14.8274L24.3971 12.7584C24.3971 12.7584 20.1076 10.3469 18.0177 8.96533H13.7936C13.5572 8.96533 13.3269 8.99016 13.104 9.0355V9.03481C13.0508 9.04559 12.9983 9.05783 12.9462 9.07102C12.9414 9.07223 12.9364 9.07309 12.9315 9.0743C12.9303 9.07464 12.9293 9.07559 12.928 9.07594C11.4427 9.46007 10.3453 10.8083 10.3453 12.4136V13.7929C9.20266 13.7929 8.27637 14.7192 8.27637 15.8619C8.27637 17.0046 9.20266 17.9308 10.3453 17.9308V18.6205C10.3453 20.291 11.3497 21.7977 12.8917 22.4402L17.3477 24.2969C17.5658 24.3877 17.7884 24.466 18.0139 24.5339C16.0446 23.0932 14.7337 21.8339 13.9657 21.0104Z" fill="#F6B47B"/>
<g id="Group_9">
<path id="Vector_11" d="M24.8283 16.5519C24.449 16.5519 24.1387 16.2415 24.1387 15.8622V15.1726C24.1387 14.7933 24.449 14.4829 24.8283 14.4829C25.2076 14.4829 25.518 14.7933 25.518 15.1726V15.8622C25.518 16.2415 25.2076 16.5519 24.8283 16.5519Z" fill="#623F33"/>
</g>
<g id="Group_10">
<path id="Vector_12" d="M26.897 13.793L26.2073 12.4137C26.2073 12.4137 28.3895 13.7904 29.7418 13.7904V8.62061H13.4619C16.0678 11.1155 19.3167 13.793 26.897 13.793Z" fill="#9D6E48"/>
</g>
<path id="Vector_13" d="M26.8971 13.793C23.9994 12.3296 22.1461 10.4885 21.0047 8.62061H13.4619C16.0679 11.1155 19.3167 13.793 26.8971 13.793Z" fill="#8D5F3D"/>
</g>
</g>
</svg>
