<svg width="40" height="40" viewBox="0 0 40 40" fill="none" xmlns="http://www.w3.org/2000/svg">
<g id="girl-12" clip-path="url(#clip0_1623_2026)">
<g id="Group">
<path id="Vector" d="M33.0501 35.6891L32.9186 35.2385C32.855 35.0208 32.643 34.8874 32.4249 34.9151L32.2861 33.874L31.9986 31.7175C31.9986 31.7175 31.9986 31.7174 31.9986 31.7173L31.9652 31.4668C31.8142 30.3338 31.1122 29.3497 29.9563 28.7718L28.6016 28.0944C28.3822 27.9848 28.2147 28.1259 28.0536 28.3051L25.0807 27.2113C24.5175 27.0236 24.1376 26.4965 24.1376 25.9028V23.6785L27.1084 22.4406C28.6502 21.7981 29.6546 20.2914 29.6546 18.6209V12.414C29.6546 10.5095 28.1107 7.58643 26.2063 7.58643H13.7925C11.8881 7.58643 10.3443 10.5095 10.3443 12.414V18.6209C10.3443 20.2913 11.3487 21.798 12.8906 22.4406L15.8615 23.6784V25.9026C15.8615 26.4963 15.4816 27.0234 14.9184 27.2112L11.9456 28.305C11.7844 28.1257 11.6169 27.9845 11.3975 28.0943L10.0429 28.7716C8.88686 29.3496 8.18496 30.3338 8.03393 31.4666L8.00056 31.7171C8.00056 31.7172 8.00056 31.7173 8.00056 31.7174L7.71306 33.8738L7.57427 34.915C7.35617 34.8872 7.14418 35.0206 7.08056 35.2383L6.94901 35.6889C6.87858 35.9302 7.01712 36.1828 7.25841 36.2532L7.39074 36.2919L7.20867 37.6577C7.04298 38.8981 8.00781 40.0002 9.2591 40.0002H30.7398C31.9911 40.0002 32.956 38.8981 32.7906 37.6578L32.6085 36.2919L32.7408 36.2533C32.982 36.1831 33.1206 35.9304 33.0501 35.6891Z" fill="#F6B47B"/>
<path id="Vector_2" d="M15.8616 23.5347V25.9027C15.8616 26.3935 15.6015 26.8382 15.1934 27.0838C20.6894 28.0334 23.8307 23.9112 24.1161 23.5347H15.8616Z" fill="#E2A071"/>
<path id="Vector_3" d="M27.1087 22.4406L22.6523 24.2974C21.8118 24.6475 20.9103 24.8279 19.9998 24.8279C19.0893 24.8279 18.1877 24.6475 17.3472 24.2974L12.8911 22.4406C11.3491 21.7981 10.3447 20.2914 10.3447 18.6209V12.414C10.3447 10.5096 11.8886 7.58643 13.793 7.58643H26.2068C28.1112 7.58643 29.6551 10.5096 29.6551 12.414V18.6209C29.6551 20.2914 28.6507 21.7981 27.1087 22.4406Z" fill="#FDC88E"/>
<path id="Vector_4" d="M15.1721 16.5519C14.7928 16.5519 14.4824 16.2415 14.4824 15.8622V15.1726C14.4824 14.7933 14.7928 14.4829 15.1721 14.4829C15.5514 14.4829 15.8617 14.7933 15.8617 15.1726V15.8622C15.8617 16.2415 15.5514 16.5519 15.1721 16.5519Z" fill="#623F33"/>
<path id="Vector_5" d="M24.8274 16.5519C24.448 16.5519 24.1377 16.2415 24.1377 15.8622V15.1726C24.1377 14.7933 24.448 14.4829 24.8274 14.4829C25.2067 14.4829 25.517 14.7933 25.517 15.1726V15.8622C25.517 16.2415 25.2067 16.5519 24.8274 16.5519Z" fill="#623F33"/>
<g id="Group_2">
<path id="Vector_6" d="M20.0001 21.398C18.774 21.398 17.6271 21.0963 16.8536 20.57C16.5388 20.3559 16.4569 19.9268 16.6714 19.612C16.8852 19.2975 17.3146 19.2156 17.6294 19.4298C18.1716 19.7985 19.0579 20.0188 20.0001 20.0188C20.9424 20.0188 21.8287 19.7985 22.3708 19.4298C22.6863 19.215 23.1147 19.2972 23.3288 19.612C23.5433 19.9268 23.4615 20.3559 23.1467 20.57C22.3732 21.0963 21.2263 21.398 20.0001 21.398Z" fill="#E2A071"/>
</g>
<path id="Vector_7" d="M10.3447 13.202V18.621C10.3447 20.2914 11.3491 21.7982 12.8911 22.4407L17.3471 24.2974C17.5652 24.3882 17.7878 24.4665 18.0133 24.5344C16.0439 23.0938 14.7331 21.8344 13.965 21.0109C13.4062 20.4118 13.1033 19.6212 13.1033 18.8019V14.9475C15.0775 14.2584 20.1848 11.9951 20.2557 8.27626C20.2624 7.92479 20.257 7.61143 20.2415 7.33203C16.9958 11.7687 12.4991 12.9321 10.3447 13.202Z" fill="#F6B47B"/>
<path id="Vector_8" d="M31.9391 22.939C31.9391 21.4777 30.7344 20.8602 30.7344 19.6158C30.7344 18.3714 32.2997 18.0366 32.2997 16.1711C32.2997 14.9241 31.744 13.9559 31.3754 13.0636C33.4771 3.95457 25.5933 0 23.4478 0C21.2064 0 19.9995 0.689655 19.9995 0.689655C19.9995 0.689655 18.7926 0 16.5512 0C14.4057 0 6.52189 3.95457 8.62353 13.0635C8.25491 13.9558 7.69922 14.924 7.69922 16.171C7.69922 18.0366 9.26456 18.3713 9.26456 19.6157C9.26456 20.8601 8.05982 21.4777 8.05982 22.9389C8.05982 24.4002 9.22017 25.1078 9.59715 26.2072C9.76956 26.71 9.56844 28.2184 9.56844 28.2184C9.56844 28.2184 10.7969 26.1915 10.1503 24.3295C9.50379 22.4675 10.2538 22.2672 10.84 21.4541C11.7236 20.2284 11.6038 18.8534 10.8821 17.517C10.4161 16.6539 10.5388 15.8202 11.192 15.2397C11.8795 14.6289 12.0407 13.5747 12.0416 13.5679C15.3066 12.6121 19.9995 10.6972 19.9995 7.58621C19.9995 10.6972 24.6923 12.6121 27.9572 13.5679C27.9583 13.5746 28.1195 14.6289 28.8069 15.2397C29.4601 15.8202 29.5828 16.6539 29.1167 17.517C28.3951 18.8534 28.2753 20.2285 29.1589 21.4541C29.7451 22.2672 30.4951 22.4675 29.8485 24.3295C29.202 26.1914 30.4304 28.2184 30.4304 28.2184C30.4304 28.2184 30.2293 26.7099 30.4017 26.2072C30.7788 25.1078 31.9391 24.4002 31.9391 22.939Z" fill="#6E4439"/>
<path id="Vector_9" d="M31.9651 31.4666C31.814 30.3336 31.112 29.3495 29.9561 28.7716L28.6014 28.0942C28.351 27.9691 28.1683 28.1706 27.9854 28.3826C24.3099 32.6439 19.9996 34.4832 19.9996 34.4832H19.9996H19.9995C19.9995 34.4832 15.6892 32.6439 12.0137 28.3826C11.8308 28.1706 11.648 27.9691 11.3977 28.0942L10.043 28.7716C8.88697 29.3496 8.18507 30.3337 8.03404 31.4666L7.47266 35.6766C9.29438 36.3039 12.4132 37.2415 12.4132 37.2415V40.0001H27.5856V37.2415C27.5856 37.2415 30.7044 36.3039 32.5264 35.6766L31.9651 31.4666Z" fill="#57B9DD"/>
<path id="Vector_10" d="M12.3963 37.0308C12.3542 36.2107 12.0804 35.4183 11.5858 34.7588L8.34817 30.4419C8.19187 30.7638 8.08204 31.1064 8.03394 31.4666L7.4873 35.5667L12.3963 37.0308Z" fill="#43A0C5"/>
<path id="Vector_11" d="M6.94901 35.6888C6.87858 35.9301 7.01712 36.1827 7.25832 36.2531L12.4135 37.7569V37.2413C12.4135 36.9155 12.3623 36.5964 12.2875 36.2833L7.64479 34.929C7.40358 34.8586 7.151 34.9971 7.08065 35.2383L6.94901 35.6888Z" fill="#258CAC"/>
<path id="Vector_12" d="M27.6025 37.0308C27.6447 36.2107 27.9185 35.4183 28.4131 34.7588L31.6507 30.4419C31.807 30.7638 31.9169 31.1064 31.965 31.4666L32.5116 35.5667L27.6025 37.0308Z" fill="#43A0C5"/>
<path id="Vector_13" d="M33.0504 35.6888C33.1209 35.9301 32.9823 36.1827 32.7411 36.2531L27.5859 37.7569V37.2413C27.5859 36.9155 27.6371 36.5964 27.7119 36.2833L32.3547 34.929C32.5959 34.8586 32.8484 34.9971 32.9188 35.2383L33.0504 35.6888Z" fill="#258CAC"/>
<path id="Vector_14" d="M16.5512 0C14.4057 0 6.52198 3.95457 8.62353 13.0635C8.25491 13.9558 7.69922 14.924 7.69922 16.171C7.69922 18.0366 9.26456 18.3713 9.26456 19.6157C9.26456 20.8601 8.05982 21.4777 8.05982 22.9389C8.05982 24.4002 9.22017 25.1078 9.59715 26.2072C9.76956 26.71 9.56844 28.2184 9.56844 28.2184C9.56844 28.2184 10.7969 26.1915 10.1503 24.3295C9.50379 22.4675 10.2538 22.2672 10.84 21.4541C11.7236 20.2284 11.6038 18.8534 10.8821 17.517C10.4161 16.6539 10.5388 15.8202 11.192 15.2397C11.8795 14.6289 12.0407 13.5747 12.0416 13.5679L12.0409 13.5678C12.0412 13.5678 12.0414 13.5677 12.0416 13.5677C10.0934 4.60069 17.8608 0.69681 19.9995 0.69V0.689655C19.9995 0.689655 18.7926 0 16.5512 0Z" fill="#5E342E"/>
</g>
</g>
<defs>
<clipPath id="clip0_1623_2026">
<rect width="40" height="40" fill="white"/>
</clipPath>
</defs>
</svg>
