<svg width="33" height="34" viewBox="0 0 33 34" fill="none" xmlns="http://www.w3.org/2000/svg">
<g id="mdi:dots-grid">
<path id="Vector" d="M16.42 22.4725C17.9252 22.4725 19.1566 23.704 19.1566 25.2091C19.1566 26.7143 17.9252 27.9457 16.42 27.9457C14.9149 27.9457 13.6834 26.7143 13.6834 25.2091C13.6834 23.704 14.9149 22.4725 16.42 22.4725ZM16.42 14.2626C17.9252 14.2626 19.1566 15.4941 19.1566 16.9992C19.1566 18.5044 17.9252 19.7359 16.42 19.7359C14.9149 19.7359 13.6834 18.5044 13.6834 16.9992C13.6834 15.4941 14.9149 14.2626 16.42 14.2626ZM16.42 6.05273C17.9252 6.05273 19.1566 7.28422 19.1566 8.78936C19.1566 10.2945 17.9252 11.526 16.42 11.526C14.9149 11.526 13.6834 10.2945 13.6834 8.78936C13.6834 7.28422 14.9149 6.05273 16.42 6.05273ZM8.21014 22.4725C9.71528 22.4725 10.9468 23.704 10.9468 25.2091C10.9468 26.7143 9.71528 27.9457 8.21014 27.9457C6.70499 27.9457 5.47351 26.7143 5.47351 25.2091C5.47351 23.704 6.70499 22.4725 8.21014 22.4725ZM8.21014 14.2626C9.71528 14.2626 10.9468 15.4941 10.9468 16.9992C10.9468 18.5044 9.71528 19.7359 8.21014 19.7359C6.70499 19.7359 5.47351 18.5044 5.47351 16.9992C5.47351 15.4941 6.70499 14.2626 8.21014 14.2626ZM8.21014 6.05273C9.71528 6.05273 10.9468 7.28422 10.9468 8.78936C10.9468 10.2945 9.71528 11.526 8.21014 11.526C6.70499 11.526 5.47351 10.2945 5.47351 8.78936C5.47351 7.28422 6.70499 6.05273 8.21014 6.05273ZM24.6299 22.4725C26.135 22.4725 27.3665 23.704 27.3665 25.2091C27.3665 26.7143 26.135 27.9457 24.6299 27.9457C23.1247 27.9457 21.8933 26.7143 21.8933 25.2091C21.8933 23.704 23.1247 22.4725 24.6299 22.4725ZM24.6299 14.2626C26.135 14.2626 27.3665 15.4941 27.3665 16.9992C27.3665 18.5044 26.135 19.7359 24.6299 19.7359C23.1247 19.7359 21.8933 18.5044 21.8933 16.9992C21.8933 15.4941 23.1247 14.2626 24.6299 14.2626ZM24.6299 6.05273C26.135 6.05273 27.3665 7.28422 27.3665 8.78936C27.3665 10.2945 26.135 11.526 24.6299 11.526C23.1247 11.526 21.8933 10.2945 21.8933 8.78936C21.8933 7.28422 23.1247 6.05273 24.6299 6.05273Z" fill="#1E2E5C"/>
</g>
</svg>
