<svg width="33" height="33" viewBox="0 0 33 33" fill="none" xmlns="http://www.w3.org/2000/svg">
<g id="mdi:dots-grid">
<path id="Vector" d="M19.9465 21.4198C21.4516 21.4198 22.6831 22.6512 22.6831 24.1564C22.6831 25.6615 21.4516 26.893 19.9465 26.893C18.4414 26.893 17.2099 25.6615 17.2099 24.1564C17.2099 22.6512 18.4414 21.4198 19.9465 21.4198ZM19.9465 13.2099C21.4516 13.2099 22.6831 14.4414 22.6831 15.9465C22.6831 17.4516 21.4516 18.6831 19.9465 18.6831C18.4414 18.6831 17.2099 17.4516 17.2099 15.9465C17.2099 14.4414 18.4414 13.2099 19.9465 13.2099ZM19.9465 5C21.4516 5 22.6831 6.23148 22.6831 7.73663C22.6831 9.24177 21.4516 10.4733 19.9465 10.4733C18.4414 10.4733 17.2099 9.24177 17.2099 7.73663C17.2099 6.23148 18.4414 5 19.9465 5ZM11.7366 21.4198C13.2418 21.4198 14.4733 22.6512 14.4733 24.1564C14.4733 25.6615 13.2418 26.893 11.7366 26.893C10.2315 26.893 9 25.6615 9 24.1564C9 22.6512 10.2315 21.4198 11.7366 21.4198ZM11.7366 13.2099C13.2418 13.2099 14.4733 14.4414 14.4733 15.9465C14.4733 17.4516 13.2418 18.6831 11.7366 18.6831C10.2315 18.6831 9 17.4516 9 15.9465C9 14.4414 10.2315 13.2099 11.7366 13.2099ZM11.7366 5C13.2418 5 14.4733 6.23148 14.4733 7.73663C14.4733 9.24177 13.2418 10.4733 11.7366 10.4733C10.2315 10.4733 9 9.24177 9 7.73663C9 6.23148 10.2315 5 11.7366 5Z" fill="#1E2E5C"/>
</g>
</svg>
